<?xml version="1.0" encoding="UTF-8"?>
<svg xmlns="http://www.w3.org/2000/svg" xmlns:xlink="http://www.w3.org/1999/xlink" width="40px" height="41px" viewBox="0 0 40 41" version="1.1">
<g id="surface1">
<path style=" stroke:none;fill-rule:nonzero;fill:rgb(0%,0%,0%);fill-opacity:1;" d="M 18.957031 2.621094 C 18.53125 2.660156 18.460938 2.691406 18.035156 3.03125 C 17.707031 3.285156 17.625 3.394531 17.625 3.550781 C 17.625 3.601562 17.515625 3.753906 17.375 3.894531 C 17.160156 4.109375 17.128906 4.171875 17.128906 4.347656 C 17.128906 4.457031 17.183594 4.734375 17.246094 4.957031 C 17.449219 5.667969 17.449219 5.6875 17.3125 5.6875 C 17.117188 5.6875 17.035156 5.738281 16.957031 5.890625 C 16.855469 6.078125 16.863281 6.3125 16.980469 6.683594 C 17.132812 7.171875 17.414062 7.628906 17.636719 7.730469 C 17.792969 7.8125 17.820312 7.851562 17.820312 7.988281 C 17.820312 8.078125 17.851562 8.238281 17.890625 8.34375 C 17.957031 8.527344 17.949219 8.78125 17.875 8.824219 C 17.835938 8.855469 16.945312 8.671875 16.773438 8.601562 C 16.703125 8.574219 16.515625 8.429688 16.351562 8.28125 C 15.980469 7.933594 15.722656 7.8125 15.226562 7.75 C 14.542969 7.667969 13.738281 7.851562 13.09375 8.242188 C 12.90625 8.351562 12.761719 8.40625 12.699219 8.390625 C 12.644531 8.375 12.429688 8.316406 12.226562 8.261719 C 11.777344 8.132812 11.339844 8.15625 10.957031 8.335938 L 10.699219 8.449219 L 10.746094 8.320312 C 10.777344 8.246094 10.792969 8 10.789062 7.765625 C 10.753906 6.757812 10.808594 6.332031 11.023438 5.84375 C 11.21875 5.402344 11.351562 5.257812 11.617188 5.199219 C 11.777344 5.167969 11.863281 5.167969 11.875 5.199219 C 11.886719 5.230469 11.945312 5.308594 12.003906 5.382812 C 12.113281 5.507812 12.144531 5.515625 12.535156 5.515625 C 13.132812 5.511719 13.460938 5.3125 13.464844 4.957031 C 13.464844 4.832031 13.511719 4.75 13.664062 4.605469 C 13.773438 4.5 13.863281 4.386719 13.863281 4.347656 C 13.863281 4.308594 13.820312 4.136719 13.765625 3.957031 C 13.71875 3.78125 13.6875 3.566406 13.699219 3.476562 C 13.726562 3.28125 13.632812 2.992188 13.5 2.871094 C 13.429688 2.800781 13.328125 2.769531 13.171875 2.769531 C 13.050781 2.769531 12.882812 2.734375 12.800781 2.695312 C 12.625 2.601562 12.496094 2.601562 12.226562 2.695312 C 12.113281 2.734375 11.9375 2.769531 11.839844 2.769531 C 11.742188 2.769531 11.5625 2.816406 11.441406 2.875 C 10.863281 3.140625 10.707031 3.210938 10.554688 3.265625 C 10.320312 3.355469 10.21875 3.511719 9.691406 4.601562 C 9.351562 5.304688 9.039062 5.851562 8.53125 6.628906 C 8.148438 7.210938 7.800781 7.761719 7.757812 7.839844 C 7.558594 8.230469 7.320312 9.042969 7.277344 9.484375 C 7.246094 9.765625 7.1875 10.023438 7.128906 10.140625 C 6.980469 10.4375 6.996094 10.664062 7.1875 10.84375 C 7.394531 11.035156 7.636719 11.15625 8.050781 11.269531 C 8.570312 11.414062 8.738281 11.496094 9.253906 11.867188 C 9.796875 12.257812 10.519531 12.675781 10.890625 12.816406 C 11.570312 13.074219 12.484375 13.039062 13.207031 12.726562 C 13.4375 12.632812 13.625 12.558594 13.632812 12.570312 C 13.636719 12.578125 13.757812 12.824219 13.894531 13.109375 C 14.207031 13.757812 14.707031 14.515625 15.253906 15.167969 C 15.480469 15.445312 15.761719 15.84375 15.871094 16.058594 C 16.128906 16.542969 16.136719 16.65625 16.148438 18.585938 L 16.148438 20.03125 L 15.96875 20.277344 C 15.871094 20.410156 15.773438 20.613281 15.753906 20.722656 C 15.722656 20.886719 15.617188 21.023438 15.148438 21.527344 C 14.835938 21.867188 14.445312 22.289062 14.28125 22.480469 C 14.117188 22.667969 13.816406 22.949219 13.613281 23.101562 C 13.042969 23.539062 12.558594 24.070312 12.363281 24.496094 C 12.171875 24.882812 11.984375 25.589844 11.847656 26.410156 L 11.761719 26.910156 L 8.042969 26.921875 L 4.332031 26.9375 L 4.316406 28.296875 C 4.308594 29.042969 4.316406 29.816406 4.332031 30.011719 C 4.363281 30.355469 4.371094 30.367188 4.496094 30.382812 L 4.628906 30.398438 L 4.644531 31.417969 L 4.652344 32.433594 L 4.496094 32.507812 L 4.332031 32.574219 L 4.316406 34.355469 C 4.3125 35.335938 4.316406 36.160156 4.328125 36.195312 C 4.347656 36.234375 4.597656 36.15625 5.132812 35.933594 C 9.613281 34.09375 11.402344 33.570312 15.054688 33.019531 C 15.996094 32.878906 17.964844 32.695312 18.863281 32.667969 C 20.59375 32.613281 23.480469 32.808594 25.199219 33.09375 C 26.523438 33.316406 27.757812 33.570312 28.710938 33.820312 C 29.1875 33.945312 29.628906 34.058594 29.6875 34.070312 C 29.757812 34.085938 29.886719 34.042969 30.019531 33.964844 C 30.144531 33.894531 30.261719 33.835938 30.289062 33.835938 C 30.316406 33.835938 30.421875 33.980469 30.519531 34.148438 L 30.703125 34.464844 L 31.808594 35.019531 C 32.414062 35.324219 33.183594 35.726562 33.519531 35.914062 C 34.003906 36.183594 34.148438 36.242188 34.203125 36.195312 C 34.238281 36.167969 34.460938 35.894531 34.691406 35.59375 C 34.925781 35.296875 35.238281 34.90625 35.394531 34.726562 C 35.550781 34.550781 35.703125 34.355469 35.734375 34.300781 C 35.773438 34.222656 35.78125 33.4375 35.757812 31.382812 L 35.726562 28.570312 L 35.117188 27.773438 C 34.78125 27.332031 34.46875 26.960938 34.425781 26.941406 C 34.386719 26.925781 33.441406 26.910156 32.328125 26.910156 L 30.308594 26.910156 L 30.222656 27.039062 L 30.136719 27.171875 L 30.019531 27.039062 L 29.894531 26.910156 L 25.207031 26.910156 L 25.261719 26.722656 C 25.355469 26.417969 25.335938 25.121094 25.226562 24.660156 C 25.042969 23.867188 24.480469 22.457031 24.113281 21.890625 C 24.03125 21.757812 23.871094 21.375 23.761719 21.042969 C 23.570312 20.449219 23.570312 20.4375 23.644531 20.253906 C 23.746094 20 23.707031 19.734375 23.53125 19.5 C 23.394531 19.324219 23.390625 19.292969 23.375 18.675781 C 23.355469 18 23.40625 17.523438 23.570312 16.820312 C 23.707031 16.222656 23.832031 15.984375 24.382812 15.285156 C 25.128906 14.332031 25.625 13.539062 25.765625 13.070312 C 25.792969 12.984375 25.828125 12.960938 25.882812 12.984375 C 26.816406 13.355469 27.558594 13.441406 28.261719 13.269531 C 28.796875 13.128906 29.097656 12.976562 29.847656 12.445312 C 30.515625 11.980469 30.921875 11.769531 31.609375 11.527344 C 32.171875 11.328125 32.355469 11.214844 32.476562 10.976562 C 32.605469 10.734375 32.597656 10.566406 32.46875 10.355469 C 32.410156 10.261719 32.328125 10.003906 32.277344 9.773438 C 32.171875 9.300781 31.890625 8.554688 31.671875 8.164062 C 31.589844 8.015625 31.351562 7.667969 31.144531 7.394531 C 30.273438 6.261719 29.863281 5.515625 29.667969 4.695312 C 29.542969 4.160156 29.523438 4.117188 29.3125 3.902344 C 29.128906 3.726562 28.996094 3.644531 28.636719 3.515625 C 28.394531 3.429688 28.070312 3.335938 27.921875 3.308594 C 27.773438 3.28125 27.515625 3.214844 27.347656 3.160156 C 27.011719 3.050781 26.925781 3.066406 26.636719 3.285156 C 26.539062 3.359375 26.402344 3.414062 26.316406 3.414062 C 26.234375 3.414062 26.132812 3.433594 26.09375 3.457031 C 26.011719 3.511719 25.742188 4.542969 25.742188 4.8125 C 25.742188 4.980469 25.761719 5.011719 25.914062 5.074219 C 26.0625 5.136719 26.089844 5.167969 26.089844 5.308594 C 26.089844 5.632812 26.4375 5.886719 26.875 5.886719 C 27.089844 5.886719 27.136719 5.867188 27.246094 5.734375 C 27.316406 5.648438 27.375 5.558594 27.375 5.535156 C 27.375 5.460938 27.660156 5.484375 27.9375 5.589844 C 28.199219 5.6875 28.207031 5.699219 28.382812 6.074219 C 28.636719 6.640625 28.722656 7.015625 28.699219 7.488281 C 28.683594 7.804688 28.570312 8.742188 28.539062 8.789062 C 28.539062 8.796875 28.390625 8.746094 28.21875 8.671875 C 27.945312 8.5625 27.851562 8.546875 27.542969 8.574219 C 27.339844 8.585938 27.0625 8.652344 26.886719 8.722656 L 26.589844 8.839844 L 26.203125 8.601562 C 25.570312 8.207031 25.300781 8.136719 24.429688 8.136719 C 23.6875 8.136719 23.6875 8.136719 23.351562 8.300781 C 23.070312 8.4375 22.964844 8.527344 22.734375 8.832031 C 22.578125 9.03125 22.425781 9.207031 22.394531 9.214844 C 22.371094 9.230469 22.136719 9.175781 21.890625 9.09375 L 21.4375 8.949219 L 21.4375 8.75 C 21.4375 8.621094 21.476562 8.492188 21.542969 8.394531 C 21.609375 8.304688 21.660156 8.144531 21.671875 7.984375 C 21.6875 7.792969 21.71875 7.710938 21.78125 7.691406 C 21.945312 7.636719 22.085938 7.429688 22.277344 6.929688 C 22.488281 6.386719 22.515625 6.179688 22.40625 5.910156 C 22.347656 5.769531 22.300781 5.734375 22.136719 5.707031 L 21.949219 5.679688 L 22.125 5.039062 L 22.296875 4.398438 L 22.136719 4.089844 C 22.050781 3.921875 21.980469 3.734375 21.980469 3.679688 C 21.980469 3.492188 21.789062 3.320312 21.296875 3.078125 C 20.945312 2.898438 20.734375 2.824219 20.503906 2.800781 C 20.335938 2.78125 20.105469 2.734375 19.996094 2.695312 C 19.722656 2.597656 19.402344 2.574219 18.957031 2.621094 Z M 12.699219 3.042969 C 12.839844 3.179688 12.847656 3.210938 12.746094 3.449219 C 12.648438 3.679688 12.652344 3.726562 12.765625 3.695312 C 12.835938 3.679688 12.875 3.707031 12.914062 3.804688 C 12.988281 3.992188 13.085938 4.402344 13.058594 4.425781 C 13.050781 4.4375 12.964844 4.457031 12.871094 4.460938 C 12.707031 4.476562 12.703125 4.472656 12.5625 4.105469 C 12.449219 3.800781 12.4375 3.691406 12.460938 3.472656 L 12.488281 3.207031 L 12.339844 3.28125 C 12.261719 3.324219 12.125 3.433594 12.035156 3.523438 L 11.871094 3.683594 L 12 3.730469 C 12.09375 3.765625 12.144531 3.832031 12.183594 3.976562 C 12.207031 4.089844 12.261719 4.273438 12.300781 4.394531 C 12.375 4.621094 12.382812 4.617188 12.136719 4.664062 C 12.039062 4.691406 12.003906 4.644531 11.847656 4.339844 C 11.726562 4.109375 11.652344 3.882812 11.632812 3.710938 C 11.613281 3.503906 11.589844 3.433594 11.523438 3.421875 C 11.464844 3.414062 11.4375 3.4375 11.4375 3.503906 C 11.4375 3.550781 11.347656 3.699219 11.234375 3.828125 L 11.03125 4.054688 L 11.203125 4.054688 C 11.386719 4.054688 11.4375 4.121094 11.5625 4.535156 C 11.625 4.722656 11.617188 4.75 11.539062 4.773438 C 11.476562 4.792969 11.335938 4.683594 11.035156 4.394531 C 10.628906 3.992188 10.617188 3.988281 10.605469 4.121094 C 10.59375 4.199219 10.625 4.351562 10.667969 4.460938 C 10.710938 4.570312 10.738281 4.667969 10.726562 4.679688 C 10.71875 4.691406 10.625 4.644531 10.523438 4.574219 C 10.425781 4.507812 10.332031 4.453125 10.316406 4.453125 C 10.261719 4.453125 10.367188 4.734375 10.476562 4.882812 C 10.539062 4.964844 10.59375 5.054688 10.59375 5.070312 C 10.59375 5.089844 10.496094 5.21875 10.382812 5.359375 C 9.941406 5.882812 9.570312 6.515625 9.328125 7.15625 C 9.164062 7.59375 9.265625 7.558594 9.597656 7.074219 C 9.746094 6.855469 9.875 6.6875 9.886719 6.699219 C 9.929688 6.738281 9.578125 7.589844 9.375 7.945312 C 8.78125 8.972656 8.664062 9.203125 8.570312 9.519531 C 8.511719 9.699219 8.464844 9.902344 8.464844 9.96875 C 8.464844 10.121094 8.375 10.144531 8.144531 10.058594 C 7.816406 9.9375 7.773438 9.929688 7.773438 9.984375 C 7.773438 10.0625 8.164062 10.394531 8.347656 10.46875 C 8.4375 10.507812 8.578125 10.535156 8.660156 10.535156 C 8.890625 10.535156 9.355469 10.308594 9.597656 10.078125 C 9.789062 9.894531 9.808594 9.882812 9.777344 9.992188 C 9.757812 10.0625 9.699219 10.199219 9.644531 10.304688 C 9.589844 10.414062 9.558594 10.507812 9.574219 10.523438 C 9.636719 10.585938 9.980469 10.398438 10.085938 10.246094 C 10.148438 10.152344 10.199219 10.097656 10.199219 10.125 C 10.199219 10.214844 10.617188 10.597656 10.839844 10.710938 C 11.152344 10.867188 11.515625 10.933594 12.070312 10.933594 C 12.867188 10.933594 13.535156 10.78125 14.199219 10.441406 L 14.511719 10.285156 L 14.609375 10.515625 C 14.667969 10.640625 14.691406 10.765625 14.667969 10.785156 C 14.535156 10.902344 13.421875 11.128906 12.5625 11.203125 C 12.375 11.222656 12.226562 11.257812 12.226562 11.285156 C 12.226562 11.363281 12.449219 11.46875 12.871094 11.582031 L 13.289062 11.691406 L 13.097656 11.757812 C 12.351562 12.015625 11.457031 12.03125 10.667969 11.796875 C 10.078125 11.625 9.429688 11.363281 9.441406 11.304688 C 9.445312 11.277344 9.625 11.199219 9.835938 11.125 C 10.273438 10.980469 10.542969 10.855469 10.542969 10.789062 C 10.542969 10.738281 10.484375 10.738281 9.710938 10.789062 C 9.347656 10.8125 8.820312 10.839844 8.535156 10.839844 C 8.089844 10.84375 7.988281 10.828125 7.789062 10.730469 C 7.605469 10.636719 7.542969 10.582031 7.535156 10.476562 C 7.519531 10.34375 7.519531 10.34375 7.660156 10.414062 C 7.78125 10.476562 7.796875 10.476562 7.8125 10.414062 C 7.820312 10.367188 7.765625 10.230469 7.691406 10.101562 C 7.578125 9.910156 7.558594 9.816406 7.5625 9.542969 C 7.570312 9.203125 7.753906 8.539062 7.9375 8.1875 L 8.039062 7.988281 L 8.074219 8.355469 C 8.109375 8.703125 8.191406 8.910156 8.234375 8.75 C 8.242188 8.710938 8.296875 8.492188 8.351562 8.261719 C 8.511719 7.613281 8.902344 6.613281 9.191406 6.113281 C 9.339844 5.867188 9.578125 5.417969 9.71875 5.121094 C 10.375 3.726562 10.457031 3.589844 10.664062 3.523438 C 10.765625 3.492188 10.90625 3.417969 10.976562 3.363281 C 11.042969 3.308594 11.160156 3.265625 11.226562 3.265625 C 11.296875 3.265625 11.441406 3.207031 11.542969 3.136719 C 11.707031 3.023438 11.746094 3.011719 11.886719 3.0625 C 12.019531 3.105469 12.070312 3.101562 12.199219 3.019531 C 12.402344 2.890625 12.554688 2.894531 12.699219 3.042969 Z M 19.28125 3.066406 C 19.242188 3.144531 19.207031 3.253906 19.207031 3.308594 C 19.207031 3.382812 19.183594 3.402344 19.125 3.382812 C 19.039062 3.359375 19.039062 3.359375 19.117188 3.414062 C 19.179688 3.449219 19.238281 3.453125 19.300781 3.417969 C 19.351562 3.386719 19.40625 3.382812 19.425781 3.398438 C 19.441406 3.414062 19.457031 3.402344 19.457031 3.367188 C 19.457031 3.328125 19.484375 3.3125 19.535156 3.335938 C 19.574219 3.347656 19.597656 3.34375 19.585938 3.320312 C 19.542969 3.261719 19.683594 3.210938 19.777344 3.246094 C 19.816406 3.265625 19.851562 3.25 19.851562 3.21875 C 19.851562 3.191406 19.941406 3.167969 20.0625 3.171875 L 20.273438 3.171875 L 20 3.261719 C 19.636719 3.375 19.46875 3.46875 19.246094 3.675781 C 19.144531 3.769531 19.050781 3.832031 19.035156 3.820312 C 19.019531 3.804688 19.011719 3.679688 19.011719 3.535156 C 19.011719 3.253906 19.105469 3.007812 19.191406 3.042969 C 19.226562 3.050781 19.253906 3.046875 19.253906 3.027344 C 19.238281 2.953125 19.257812 2.917969 19.308594 2.917969 C 19.335938 2.917969 19.328125 2.984375 19.28125 3.066406 Z M 13.367188 3.160156 C 13.390625 3.214844 13.414062 3.367188 13.414062 3.503906 C 13.414062 3.636719 13.449219 3.84375 13.488281 3.957031 C 13.53125 4.070312 13.5625 4.195312 13.5625 4.230469 C 13.5625 4.289062 13.421875 4.375 13.382812 4.339844 C 13.335938 4.289062 13.117188 3.421875 13.117188 3.285156 C 13.117188 3.050781 13.265625 2.976562 13.367188 3.160156 Z M 18.503906 3.289062 C 18.511719 3.359375 18.550781 3.496094 18.589844 3.597656 C 18.664062 3.773438 18.664062 3.773438 18.5625 3.683594 C 18.511719 3.636719 18.480469 3.570312 18.5 3.542969 C 18.515625 3.511719 18.515625 3.503906 18.488281 3.523438 C 18.46875 3.542969 18.421875 3.535156 18.386719 3.507812 C 18.332031 3.460938 18.332031 3.429688 18.394531 3.308594 C 18.484375 3.136719 18.488281 3.132812 18.503906 3.289062 Z M 27.523438 3.527344 C 27.671875 3.570312 27.925781 3.625 28.085938 3.65625 C 28.445312 3.71875 28.914062 3.929688 29.074219 4.097656 C 29.164062 4.191406 29.253906 4.421875 29.386719 4.886719 C 29.535156 5.421875 29.628906 5.648438 29.886719 6.097656 C 30.96875 7.980469 30.945312 7.90625 30.996094 9.027344 C 31.035156 9.917969 31.074219 10.238281 31.144531 10.238281 C 31.207031 10.238281 31.375 9.949219 31.414062 9.78125 C 31.4375 9.675781 31.460938 9.65625 31.511719 9.695312 C 31.609375 9.773438 31.765625 10.1875 31.808594 10.449219 C 31.847656 10.710938 31.875 10.730469 32.003906 10.585938 C 32.117188 10.457031 32.160156 10.460938 32.191406 10.597656 C 32.277344 10.902344 31.808594 11.121094 30.941406 11.179688 C 30.320312 11.21875 30.132812 11.277344 29.226562 11.695312 L 28.722656 11.921875 L 28.335938 11.804688 C 27.21875 11.445312 26.332031 11.3125 25.308594 11.339844 C 24.949219 11.347656 24.652344 11.34375 24.652344 11.328125 C 24.652344 11.214844 24.855469 10.808594 24.910156 10.820312 C 24.945312 10.824219 25.199219 10.902344 25.46875 11 C 25.742188 11.097656 26.136719 11.203125 26.347656 11.234375 C 27.273438 11.371094 28.605469 11 29.339844 10.410156 L 29.550781 10.238281 L 29.777344 10.484375 C 30.105469 10.828125 30.332031 10.90625 31.023438 10.90625 C 31.628906 10.90625 31.828125 10.84375 31.554688 10.730469 C 30.835938 10.4375 29.835938 9.875 29.628906 9.644531 C 29.515625 9.523438 29.558594 9.523438 30.058594 9.652344 C 30.277344 9.707031 30.46875 9.734375 30.484375 9.71875 C 30.542969 9.667969 30.019531 9.191406 29.746094 9.054688 C 29.386719 8.863281 29.3125 8.691406 29.257812 7.890625 C 29.234375 7.5625 29.1875 7.167969 29.160156 7.011719 C 29.128906 6.851562 29.109375 6.703125 29.117188 6.679688 C 29.128906 6.652344 29.292969 6.828125 29.480469 7.0625 C 29.890625 7.574219 29.941406 7.527344 29.699219 6.851562 C 29.523438 6.347656 29.363281 6.003906 29.152344 5.703125 C 29.015625 5.507812 29.011719 5.476562 29.042969 5.136719 L 29.074219 4.773438 L 28.890625 4.933594 C 28.792969 5.019531 28.6875 5.09375 28.664062 5.09375 C 28.636719 5.09375 28.660156 5.019531 28.710938 4.933594 C 28.8125 4.773438 28.851562 4.402344 28.765625 4.402344 C 28.742188 4.402344 28.558594 4.582031 28.355469 4.796875 C 27.910156 5.285156 27.828125 5.277344 27.921875 4.777344 L 27.980469 4.453125 L 28.421875 4.453125 L 28.3125 4.253906 C 28.117188 3.914062 27.867188 3.738281 27.847656 3.933594 C 27.835938 4.03125 27.609375 4.765625 27.519531 4.980469 C 27.476562 5.09375 27.355469 5.125 27.242188 5.054688 C 27.199219 5.027344 27.191406 4.9375 27.234375 4.675781 C 27.316406 4.097656 27.316406 4.097656 27.429688 4.160156 C 27.679688 4.292969 27.597656 3.980469 27.328125 3.765625 C 27.210938 3.675781 27.117188 3.609375 27.109375 3.617188 C 27.105469 3.625 27.042969 3.914062 26.984375 4.253906 C 26.839844 5.027344 26.828125 5.054688 26.632812 4.988281 C 26.46875 4.933594 26.460938 4.878906 26.523438 4.453125 C 26.554688 4.257812 26.574219 4.230469 26.671875 4.246094 C 26.734375 4.253906 26.78125 4.253906 26.78125 4.246094 C 26.78125 4.234375 26.746094 4.105469 26.707031 3.957031 L 26.632812 3.683594 L 26.789062 3.546875 C 26.957031 3.386719 27.015625 3.386719 27.523438 3.527344 Z M 18.144531 3.5625 C 18.128906 3.582031 18.152344 3.609375 18.191406 3.632812 C 18.238281 3.644531 18.265625 3.632812 18.265625 3.582031 C 18.265625 3.542969 18.292969 3.523438 18.316406 3.535156 C 18.351562 3.558594 18.347656 3.601562 18.3125 3.664062 C 18.265625 3.75 18.246094 3.753906 18.179688 3.699219 C 18.117188 3.65625 18.117188 3.664062 18.1875 3.75 C 18.242188 3.808594 18.257812 3.859375 18.226562 3.859375 C 18.199219 3.859375 18.148438 3.8125 18.117188 3.765625 C 18.054688 3.640625 18.054688 3.449219 18.117188 3.488281 C 18.148438 3.507812 18.160156 3.535156 18.144531 3.5625 Z M 21.386719 3.585938 C 21.558594 3.660156 21.617188 3.707031 21.550781 3.710938 C 21.488281 3.710938 21.425781 3.683594 21.410156 3.660156 C 21.390625 3.632812 21.363281 3.621094 21.335938 3.636719 C 21.3125 3.652344 21.28125 3.640625 21.261719 3.609375 C 21.21875 3.542969 20.875 3.550781 20.496094 3.636719 C 20.316406 3.671875 20.167969 3.695312 20.160156 3.683594 C 20.117188 3.652344 20.773438 3.46875 20.941406 3.46875 C 21.035156 3.46875 21.238281 3.523438 21.386719 3.585938 Z M 21.238281 3.664062 C 21.238281 3.695312 21.273438 3.710938 21.3125 3.691406 C 21.351562 3.675781 21.386719 3.679688 21.386719 3.707031 C 21.386719 3.730469 21.3125 3.757812 21.21875 3.769531 C 21.070312 3.785156 21.058594 3.78125 21.109375 3.699219 C 21.167969 3.601562 21.238281 3.582031 21.238281 3.664062 Z M 26.386719 3.832031 C 26.386719 3.902344 26.339844 4.042969 26.289062 4.140625 C 26.234375 4.246094 26.1875 4.394531 26.1875 4.476562 C 26.1875 4.660156 26.117188 4.789062 26.0625 4.703125 C 26.019531 4.625 26.128906 4.175781 26.21875 4.101562 C 26.257812 4.070312 26.289062 3.96875 26.289062 3.878906 C 26.289062 3.785156 26.3125 3.710938 26.335938 3.710938 C 26.367188 3.710938 26.386719 3.765625 26.386719 3.832031 Z M 21.179688 4.179688 C 21.28125 4.214844 21.289062 4.238281 21.289062 4.832031 C 21.289062 5.289062 21.308594 5.484375 21.363281 5.59375 C 21.40625 5.675781 21.449219 5.882812 21.46875 6.054688 L 21.5 6.371094 L 21.199219 6.691406 C 20.894531 7.019531 20.660156 7.394531 20.734375 7.441406 C 20.757812 7.453125 20.910156 7.375 21.078125 7.273438 L 21.386719 7.078125 L 21.386719 8.101562 L 21.164062 8.34375 L 20.945312 8.582031 L 20.941406 8.222656 C 20.941406 7.722656 20.855469 7.773438 20.667969 8.378906 C 20.5 8.925781 20.421875 9.019531 20.183594 8.949219 C 20.09375 8.925781 19.886719 8.90625 19.71875 8.90625 C 19.425781 8.90625 19.40625 8.898438 19.40625 8.789062 C 19.40625 8.613281 19.5 8.558594 19.8125 8.558594 C 20.054688 8.558594 20.125 8.539062 20.222656 8.433594 C 20.367188 8.296875 20.382812 8.210938 20.261719 8.207031 C 20.210938 8.207031 20.003906 8.195312 19.800781 8.191406 C 19.597656 8.1875 19.355469 8.164062 19.273438 8.144531 C 19.117188 8.101562 19.109375 8.109375 19.109375 8.230469 C 19.109375 8.320312 19.085938 8.359375 19.023438 8.359375 C 18.863281 8.359375 18.8125 8.28125 18.792969 7.984375 C 18.78125 7.820312 18.753906 7.636719 18.71875 7.582031 C 18.644531 7.433594 18.644531 7.429688 18.796875 7.410156 C 18.921875 7.394531 18.902344 7.375 18.554688 7.113281 C 18.078125 6.757812 17.988281 6.613281 17.949219 6.121094 C 17.921875 5.773438 17.925781 5.722656 18.023438 5.601562 C 18.117188 5.476562 18.128906 5.417969 18.113281 4.921875 L 18.09375 4.378906 L 18.292969 4.3125 C 18.726562 4.171875 19.328125 4.109375 20.199219 4.125 C 20.671875 4.136719 21.113281 4.160156 21.179688 4.179688 Z M 17.863281 4.3125 C 17.871094 4.425781 17.777344 4.769531 17.746094 4.738281 C 17.738281 4.730469 17.746094 4.640625 17.765625 4.542969 C 17.808594 4.363281 17.808594 4.363281 17.652344 4.382812 L 17.5 4.402344 L 17.671875 4.308594 C 17.765625 4.253906 17.847656 4.210938 17.847656 4.203125 C 17.851562 4.203125 17.855469 4.253906 17.863281 4.3125 Z M 21.78125 4.699219 C 21.78125 4.730469 21.757812 4.75 21.726562 4.75 C 21.703125 4.75 21.691406 4.722656 21.710938 4.691406 C 21.734375 4.660156 21.726562 4.648438 21.699219 4.664062 C 21.664062 4.691406 21.660156 4.765625 21.683594 4.878906 C 21.710938 4.996094 21.707031 5.039062 21.671875 5.007812 C 21.648438 4.980469 21.613281 4.863281 21.597656 4.75 C 21.570312 4.546875 21.574219 4.542969 21.679688 4.59375 C 21.734375 4.628906 21.78125 4.675781 21.78125 4.699219 Z M 12.789062 5.050781 C 12.671875 5.167969 12.261719 5.238281 12.207031 5.148438 C 12.1875 5.121094 12.222656 5.085938 12.289062 5.070312 C 12.910156 4.925781 12.914062 4.925781 12.789062 5.050781 Z M 26.800781 5.398438 C 26.828125 5.417969 26.792969 5.460938 26.71875 5.496094 C 26.605469 5.546875 26.570312 5.539062 26.484375 5.464844 C 26.429688 5.417969 26.402344 5.359375 26.414062 5.332031 C 26.445312 5.285156 26.734375 5.328125 26.800781 5.398438 Z M 17.5 5.996094 C 17.671875 6.074219 17.660156 6.171875 17.46875 6.164062 C 17.277344 6.160156 17.152344 6.308594 17.292969 6.386719 C 17.347656 6.421875 17.375 6.496094 17.375 6.609375 C 17.375 6.835938 17.445312 6.957031 17.625 7.050781 C 17.746094 7.113281 17.773438 7.15625 17.773438 7.296875 C 17.773438 7.503906 17.71875 7.515625 17.578125 7.339844 C 17.289062 6.96875 17.042969 6.171875 17.179688 6.015625 C 17.253906 5.921875 17.328125 5.917969 17.5 5.996094 Z M 22.132812 5.984375 C 22.28125 6.070312 22.257812 6.402344 22.074219 6.773438 C 21.988281 6.941406 21.90625 7.136719 21.886719 7.210938 C 21.867188 7.285156 21.8125 7.351562 21.765625 7.359375 C 21.636719 7.386719 21.660156 7.113281 21.789062 6.996094 C 21.914062 6.882812 22.03125 6.628906 22.03125 6.457031 C 22.03125 6.386719 22.054688 6.332031 22.078125 6.332031 C 22.152344 6.332031 22.136719 6.132812 22.070312 6.128906 C 22.035156 6.125 21.964844 6.125 21.921875 6.128906 C 21.816406 6.144531 21.808594 6.078125 21.890625 5.996094 C 21.964844 5.921875 22.011719 5.921875 22.132812 5.984375 Z M 17.671875 6.613281 C 17.671875 6.714844 17.660156 6.734375 17.617188 6.691406 C 17.585938 6.660156 17.574219 6.597656 17.589844 6.558594 C 17.636719 6.441406 17.671875 6.464844 17.671875 6.613281 Z M 21.832031 6.515625 C 21.828125 6.605469 21.742188 6.6875 21.710938 6.632812 C 21.691406 6.605469 21.691406 6.554688 21.707031 6.53125 C 21.742188 6.46875 21.832031 6.464844 21.832031 6.515625 Z M 10.253906 7.40625 C 10.199219 7.625 10.117188 7.878906 10.074219 7.980469 C 9.957031 8.261719 9.984375 8.28125 10.207031 8.09375 C 10.320312 7.996094 10.421875 7.925781 10.4375 7.941406 C 10.480469 7.984375 10.199219 8.394531 9.867188 8.765625 C 9.570312 9.101562 9.308594 9.351562 9.308594 9.285156 C 9.308594 9.234375 9.617188 8.523438 9.945312 7.832031 C 10.136719 7.414062 10.296875 7.050781 10.296875 7.015625 C 10.296875 6.984375 10.308594 6.96875 10.328125 6.984375 C 10.339844 7 10.308594 7.1875 10.253906 7.40625 Z M 18.445312 8.136719 C 18.488281 8.269531 18.558594 8.433594 18.59375 8.492188 C 18.632812 8.558594 18.648438 8.609375 18.625 8.609375 C 18.484375 8.609375 18.242188 8.1875 18.203125 7.867188 L 18.171875 7.644531 L 18.265625 7.765625 C 18.320312 7.835938 18.402344 8 18.445312 8.136719 Z M 15.792969 8.230469 C 15.910156 8.3125 16.09375 8.46875 16.203125 8.585938 C 16.449219 8.859375 16.6875 8.964844 17.316406 9.082031 C 17.636719 9.140625 17.820312 9.195312 17.820312 9.234375 C 17.820312 9.316406 17.78125 9.316406 17.542969 9.234375 C 17.261719 9.136719 17.03125 9.097656 17.03125 9.152344 C 17.03125 9.175781 17.292969 9.363281 17.613281 9.578125 C 18.425781 10.113281 18.894531 10.460938 18.964844 10.597656 C 19 10.660156 19.054688 10.824219 19.089844 10.960938 L 19.148438 11.214844 L 18.828125 11.050781 C 18.535156 10.898438 18.164062 10.824219 18.167969 10.917969 C 18.171875 10.941406 18.296875 11.054688 18.449219 11.179688 C 19 11.621094 19.097656 11.722656 19.179688 11.957031 C 19.277344 12.242188 19.28125 12.675781 19.1875 12.855469 C 19.109375 13 18.789062 13.3125 18.617188 13.40625 C 18.457031 13.488281 18.496094 13.554688 18.710938 13.554688 C 19.097656 13.554688 19.585938 13.183594 19.632812 12.851562 C 19.664062 12.6875 19.703125 12.648438 20.011719 12.464844 C 20.199219 12.351562 20.632812 12.128906 20.976562 11.964844 C 21.316406 11.804688 21.589844 11.664062 21.578125 11.648438 C 21.535156 11.609375 20.625 11.722656 20.347656 11.804688 C 20.199219 11.847656 19.984375 11.925781 19.882812 11.976562 C 19.773438 12.027344 19.683594 12.070312 19.679688 12.070312 C 19.667969 12.070312 19.703125 11.765625 19.734375 11.640625 C 19.742188 11.574219 19.90625 11.425781 20.132812 11.265625 C 20.347656 11.117188 20.5625 10.949219 20.613281 10.886719 L 20.707031 10.785156 L 20.515625 10.785156 C 20.410156 10.785156 20.167969 10.855469 19.980469 10.933594 C 19.792969 11.011719 19.625 11.070312 19.613281 11.054688 C 19.605469 11.046875 19.605469 10.980469 19.625 10.917969 C 19.710938 10.5625 20.09375 10.355469 21.558594 9.867188 C 22.632812 9.511719 23.761719 9.09375 23.761719 9.046875 C 23.761719 9.003906 23.496094 8.953125 23.289062 8.953125 C 23.074219 8.953125 23.074219 8.898438 23.28125 8.726562 C 23.519531 8.523438 23.71875 8.460938 24.191406 8.429688 C 24.875 8.386719 25.613281 8.582031 26.078125 8.9375 C 26.320312 9.121094 26.222656 9.179688 25.832031 9.082031 C 25.664062 9.042969 25.46875 9.019531 25.410156 9.03125 C 25.320312 9.058594 25.3125 9.082031 25.351562 9.1875 C 25.421875 9.371094 25.410156 9.378906 25.210938 9.359375 C 24.980469 9.328125 24.238281 9.4375 24.132812 9.519531 C 24.058594 9.566406 24.097656 9.597656 24.402344 9.714844 L 24.746094 9.847656 L 24.648438 10.105469 C 24.363281 10.847656 24.054688 11.21875 22.945312 12.1875 C 22.253906 12.792969 21.957031 12.941406 20.757812 13.269531 C 20.234375 13.410156 19.800781 13.542969 19.800781 13.558594 C 19.800781 13.609375 20.03125 13.691406 20.339844 13.757812 C 20.539062 13.792969 20.886719 13.808594 21.300781 13.792969 C 22.03125 13.761719 22.277344 13.6875 22.738281 13.382812 C 22.875 13.289062 23.011719 13.226562 23.035156 13.253906 C 23.054688 13.273438 23.085938 13.367188 23.097656 13.460938 C 23.128906 13.625 23.117188 13.632812 22.886719 13.742188 C 22.757812 13.800781 22.542969 13.875 22.421875 13.910156 C 22.292969 13.945312 22.183594 13.996094 22.171875 14.023438 C 22.132812 14.125 22.496094 14.246094 22.8125 14.246094 L 23.125 14.246094 L 23.109375 14.40625 C 23.09375 14.570312 23.09375 14.570312 22.851562 14.554688 C 22.71875 14.550781 22.496094 14.507812 22.363281 14.46875 C 22.222656 14.429688 22.105469 14.40625 22.089844 14.421875 C 22.054688 14.453125 22.328125 14.894531 22.523438 15.109375 C 22.78125 15.390625 22.789062 15.445312 22.625 15.757812 C 22.429688 16.125 22.53125 16.117188 23.035156 15.726562 C 23.246094 15.5625 23.4375 15.433594 23.445312 15.449219 C 23.460938 15.464844 23.394531 15.628906 23.296875 15.816406 C 23.09375 16.222656 23.050781 16.449219 22.945312 17.660156 C 22.902344 18.164062 22.855469 18.585938 22.839844 18.59375 C 22.832031 18.605469 22.820312 18.585938 22.816406 18.546875 C 22.757812 16.96875 22.726562 16.527344 22.660156 16.375 C 22.609375 16.253906 22.578125 16.226562 22.558594 16.273438 C 22.542969 16.316406 22.441406 16.929688 22.328125 17.636719 C 22.117188 18.953125 21.960938 19.628906 21.777344 20 C 21.636719 20.273438 21.457031 20.515625 21.335938 20.578125 C 21.242188 20.628906 21.242188 20.625 21.339844 20.371094 C 21.683594 19.53125 22.011719 18.195312 22.207031 16.820312 C 22.363281 15.742188 22.242188 15 21.875 14.738281 L 21.734375 14.636719 L 21.734375 15.097656 C 21.726562 15.894531 21.5625 16.09375 20.746094 16.28125 C 20.496094 16.339844 20.300781 16.410156 20.3125 16.4375 C 20.339844 16.539062 20.707031 16.691406 20.960938 16.710938 C 21.105469 16.71875 21.296875 16.710938 21.402344 16.679688 L 21.585938 16.632812 L 21.585938 16.804688 C 21.585938 17.289062 21.28125 17.664062 20.734375 17.863281 C 20.574219 17.921875 20.449219 17.996094 20.460938 18.027344 C 20.46875 18.054688 20.660156 18.171875 20.882812 18.273438 L 21.289062 18.46875 L 21.289062 18.734375 C 21.289062 19.039062 21.222656 19.214844 20.90625 19.761719 C 20.480469 20.503906 20.171875 20.710938 19.578125 20.667969 C 19.21875 20.636719 19.023438 20.535156 18.835938 20.28125 C 18.644531 20.019531 18.503906 19.503906 18.5 19.019531 L 18.488281 18.59375 L 18.777344 18.476562 C 19.054688 18.367188 19.257812 18.230469 19.257812 18.15625 C 19.257812 18.136719 19.128906 18.105469 18.976562 18.089844 C 18.644531 18.054688 18.09375 17.792969 17.957031 17.605469 C 17.90625 17.535156 17.851562 17.394531 17.835938 17.285156 L 17.8125 17.089844 L 18.300781 16.789062 C 18.570312 16.625 18.792969 16.453125 18.800781 16.414062 C 18.8125 16.355469 18.707031 16.328125 18.253906 16.289062 C 17.613281 16.230469 17.457031 16.167969 17.222656 15.875 C 17.070312 15.683594 17.0625 15.667969 17.148438 15.601562 C 17.199219 15.566406 17.347656 15.511719 17.480469 15.480469 C 17.613281 15.445312 17.722656 15.398438 17.722656 15.378906 C 17.722656 15.34375 17.265625 15.136719 17.191406 15.136719 C 17.167969 15.136719 17.0625 15.078125 16.960938 15.007812 L 16.765625 14.875 L 17.035156 14.746094 C 17.40625 14.570312 17.410156 14.464844 17.054688 14.449219 C 16.753906 14.441406 16.535156 14.375 16.535156 14.300781 C 16.535156 14.21875 16.59375 14.207031 17.320312 14.125 C 18.03125 14.050781 18.273438 13.984375 18.117188 13.929688 C 18.078125 13.914062 17.710938 13.828125 17.308594 13.734375 C 16.496094 13.550781 16.4375 13.515625 16.4375 13.199219 L 16.4375 13.015625 L 16.613281 13.121094 C 16.707031 13.171875 16.925781 13.253906 17.09375 13.289062 C 17.449219 13.367188 18.019531 13.375 18.019531 13.308594 C 18.019531 13.28125 17.871094 13.179688 17.6875 13.078125 C 17.335938 12.886719 17.097656 12.660156 15.894531 11.398438 C 15.339844 10.808594 15.199219 10.632812 14.988281 10.226562 C 14.671875 9.621094 14.367188 9.304688 13.722656 8.910156 C 13.164062 8.5625 13.152344 8.542969 13.519531 8.355469 C 13.941406 8.144531 14.351562 8.0625 14.980469 8.078125 C 15.542969 8.089844 15.589844 8.09375 15.792969 8.230469 Z M 12.386719 8.578125 C 13.015625 8.800781 13.394531 9.09375 13.664062 9.5625 L 13.8125 9.820312 L 13.570312 9.902344 C 13.339844 9.976562 13.28125 9.976562 12.613281 9.890625 C 12.226562 9.839844 11.867188 9.800781 11.816406 9.792969 C 11.660156 9.792969 11.753906 9.898438 12.074219 10.097656 L 12.382812 10.285156 L 12.167969 10.3125 C 11.6875 10.386719 10.921875 10.144531 10.539062 9.804688 L 10.292969 9.582031 L 10.53125 9.425781 C 10.660156 9.335938 10.902344 9.121094 11.0625 8.953125 C 11.382812 8.632812 11.382812 8.632812 10.980469 8.742188 C 10.800781 8.785156 10.902344 8.695312 11.152344 8.582031 C 11.5 8.417969 11.929688 8.417969 12.386719 8.578125 Z M 28.003906 8.96875 C 28.113281 9.027344 28.109375 9.03125 27.894531 9.148438 C 27.773438 9.210938 27.671875 9.28125 27.671875 9.300781 C 27.671875 9.324219 27.855469 9.355469 28.085938 9.375 C 28.515625 9.410156 28.8125 9.511719 29 9.691406 C 29.136719 9.828125 29.136719 9.847656 28.976562 10.003906 C 28.644531 10.320312 27.875 10.511719 26.945312 10.511719 C 26.589844 10.511719 26.277344 10.492188 26.253906 10.46875 C 26.234375 10.449219 26.320312 10.328125 26.457031 10.210938 C 26.59375 10.089844 26.6875 9.976562 26.667969 9.964844 C 26.617188 9.914062 26.125 10.027344 25.761719 10.171875 C 25.503906 10.273438 25.4375 10.285156 25.328125 10.234375 C 25.203125 10.175781 25.203125 10.175781 25.511719 9.996094 C 25.679688 9.898438 26.0625 9.640625 26.371094 9.433594 C 26.671875 9.222656 27.011719 9.019531 27.113281 8.980469 C 27.347656 8.894531 27.863281 8.890625 28.003906 8.96875 Z M 18.363281 9.253906 C 18.441406 9.488281 18.664062 9.742188 19.078125 10.066406 C 19.28125 10.230469 19.449219 10.378906 19.457031 10.398438 C 19.460938 10.492188 19.328125 10.417969 19.015625 10.152344 C 18.832031 9.988281 18.570312 9.785156 18.4375 9.695312 C 18.300781 9.605469 18.183594 9.527344 18.179688 9.519531 C 18.144531 9.492188 18.226562 9.101562 18.265625 9.101562 C 18.289062 9.101562 18.332031 9.171875 18.363281 9.253906 Z M 20.890625 9.234375 C 20.773438 9.652344 20.6875 9.78125 20.488281 9.859375 C 20.386719 9.898438 20.296875 9.917969 20.296875 9.902344 C 20.296875 9.792969 20.8125 9.101562 20.890625 9.101562 C 20.914062 9.101562 20.914062 9.160156 20.890625 9.234375 Z M 19.050781 9.417969 C 19.519531 9.78125 19.667969 9.996094 19.242188 9.699219 C 19.019531 9.546875 18.667969 9.203125 18.734375 9.203125 C 18.753906 9.203125 18.894531 9.300781 19.050781 9.417969 Z M 21.765625 9.410156 L 21.90625 9.464844 L 21.707031 9.527344 C 21.425781 9.617188 21.320312 9.613281 21.355469 9.519531 C 21.371094 9.472656 21.386719 9.402344 21.386719 9.363281 C 21.386719 9.285156 21.496094 9.296875 21.765625 9.410156 Z M 19.738281 9.527344 C 19.722656 9.542969 19.679688 9.546875 19.644531 9.53125 C 19.605469 9.519531 19.617188 9.503906 19.671875 9.503906 C 19.726562 9.5 19.757812 9.511719 19.738281 9.527344 Z M 15.464844 11.851562 C 16.019531 12.511719 15.984375 12.347656 15.816406 13.441406 L 15.722656 14.042969 L 15.371094 13.707031 C 15.183594 13.519531 14.925781 13.277344 14.800781 13.167969 L 14.578125 12.972656 L 14.6875 12.851562 C 14.808594 12.726562 14.902344 12.511719 14.902344 12.367188 C 14.902344 12.28125 14.890625 12.28125 14.617188 12.371094 L 14.332031 12.460938 L 14.21875 12.335938 C 14.109375 12.214844 14.109375 12.207031 14.191406 12.101562 C 14.363281 11.890625 14.925781 11.277344 14.957031 11.277344 C 14.96875 11.277344 15.199219 11.535156 15.464844 11.851562 Z M 24.699219 12.015625 C 24.902344 12.273438 25.023438 12.613281 24.914062 12.613281 C 24.875 12.613281 24.355469 11.90625 24.355469 11.851562 C 24.355469 11.839844 24.402344 11.824219 24.449219 11.824219 C 24.503906 11.824219 24.613281 11.90625 24.699219 12.015625 Z M 27.003906 11.972656 C 27.207031 12.019531 27.464844 12.113281 27.585938 12.179688 L 27.796875 12.292969 L 27.277344 12.308594 C 26.710938 12.324219 26.4375 12.261719 26.042969 12.035156 C 25.882812 11.941406 25.847656 11.898438 25.894531 11.863281 C 25.988281 11.804688 26.5625 11.859375 27.003906 11.972656 Z M 24.171875 12.625 L 24.347656 12.832031 L 24.191406 13.121094 C 24.105469 13.273438 23.949219 13.519531 23.851562 13.664062 L 23.664062 13.925781 L 23.664062 13.707031 C 23.664062 13.585938 23.628906 13.34375 23.585938 13.167969 L 23.503906 12.851562 L 23.71875 12.632812 C 23.835938 12.515625 23.945312 12.417969 23.964844 12.417969 C 23.984375 12.417969 24.078125 12.511719 24.171875 12.625 Z M 24.851562 13.234375 C 24.894531 13.289062 24.875 13.367188 24.753906 13.625 C 24.605469 13.921875 24.125 14.523438 24.074219 14.476562 C 24.019531 14.425781 24.667969 13.160156 24.746094 13.160156 C 24.773438 13.160156 24.816406 13.195312 24.851562 13.234375 Z M 16.839844 16.792969 C 16.941406 17.011719 17.035156 17.273438 17.054688 17.382812 C 17.097656 17.636719 17.28125 18.042969 17.496094 18.367188 C 17.6875 18.65625 17.820312 18.945312 17.820312 19.074219 C 17.820312 19.15625 17.761719 19.15625 17.464844 19.066406 C 17.28125 19.011719 17.386719 19.230469 17.921875 20.019531 C 18.222656 20.464844 18.445312 20.828125 18.414062 20.828125 C 18.3125 20.828125 17.835938 20.585938 17.710938 20.464844 C 17.355469 20.132812 17.035156 19.199219 16.886719 18.082031 C 16.828125 17.644531 16.726562 17.066406 16.660156 16.792969 C 16.589844 16.523438 16.535156 16.28125 16.535156 16.25 C 16.535156 16.160156 16.667969 16.398438 16.839844 16.792969 Z M 16.167969 21.425781 C 15.863281 21.761719 15.503906 22.316406 15.390625 22.613281 C 15.3125 22.808594 15.296875 22.992188 15.296875 23.597656 C 15.296875 24.035156 15.316406 24.339844 15.347656 24.339844 C 15.394531 24.339844 15.53125 23.914062 15.671875 23.324219 C 15.8125 22.730469 16.097656 22.195312 16.488281 21.8125 C 16.671875 21.621094 16.867188 21.46875 16.910156 21.46875 C 16.957031 21.46875 17.257812 21.617188 17.585938 21.800781 C 18.371094 22.246094 18.628906 22.5 18.957031 23.175781 C 19.09375 23.464844 19.207031 23.730469 19.207031 23.769531 C 19.207031 23.917969 18.808594 24.902344 18.679688 25.074219 C 18.390625 25.453125 17.210938 26.886719 17.171875 26.902344 C 17.148438 26.910156 17.1875 26.753906 17.257812 26.554688 C 17.539062 25.734375 17.789062 24.34375 17.761719 23.691406 L 17.746094 23.273438 L 17.632812 23.523438 C 17.574219 23.65625 17.171875 24.476562 16.742188 25.339844 L 15.964844 26.90625 L 15.484375 26.90625 L 15.003906 26.910156 L 15.300781 26.34375 C 15.613281 25.757812 15.613281 25.6875 15.3125 25.871094 C 15.09375 26 14.40625 26.664062 14.40625 26.738281 C 14.40625 26.863281 14.261719 26.917969 13.964844 26.902344 L 13.667969 26.886719 L 14.136719 26.121094 C 14.679688 25.253906 14.828125 24.972656 14.957031 24.601562 C 15.054688 24.3125 15.128906 23.6875 15.074219 23.601562 C 15.039062 23.539062 14.21875 24.769531 13.964844 25.265625 C 13.792969 25.605469 13.59375 26.257812 13.539062 26.648438 L 13.503906 26.910156 L 12.839844 26.910156 C 12.449219 26.910156 12.179688 26.890625 12.179688 26.863281 C 12.179688 26.835938 12.242188 26.496094 12.328125 26.109375 C 12.5625 24.957031 12.734375 24.5625 13.105469 24.257812 C 13.574219 23.875 13.535156 23.878906 13.496094 24.210938 C 13.46875 24.375 13.445312 24.535156 13.429688 24.582031 C 13.363281 24.8125 13.667969 24.324219 13.960938 23.746094 C 14.371094 22.925781 14.734375 22.433594 15.503906 21.644531 L 16.097656 21.03125 L 16.246094 21.105469 L 16.390625 21.175781 Z M 23.464844 21.542969 C 23.519531 21.75 23.574219 22.183594 23.59375 22.5 L 23.625 23.078125 L 23.296875 24.273438 C 22.96875 25.464844 22.773438 26.03125 22.476562 26.609375 L 22.328125 26.910156 L 21.335938 26.910156 C 20.792969 26.910156 20.347656 26.902344 20.347656 26.886719 C 20.347656 26.875 20.539062 26.457031 20.773438 25.960938 C 21.425781 24.570312 21.535156 24.269531 21.535156 23.792969 L 21.535156 23.523438 L 21.441406 23.644531 C 21.386719 23.710938 21.125 24.121094 20.851562 24.5625 C 20.578125 24.996094 20.296875 25.40625 20.226562 25.472656 L 20.097656 25.589844 L 20.097656 25.371094 C 20.109375 24.753906 20.179688 24.449219 20.402344 24.105469 C 20.867188 23.394531 22.628906 21.21875 22.664062 21.316406 C 22.671875 21.347656 22.660156 21.449219 22.628906 21.554688 C 22.535156 21.875 22.578125 22.945312 22.703125 23.5625 C 22.726562 23.675781 22.742188 23.691406 22.800781 23.640625 C 22.925781 23.542969 23.019531 23.09375 23.050781 22.507812 C 23.070312 21.984375 23.1875 21.164062 23.253906 21.058594 C 23.296875 20.984375 23.363281 21.132812 23.464844 21.542969 Z M 24.710938 25.199219 C 24.835938 25.804688 24.863281 26.015625 24.835938 26.34375 C 24.800781 26.890625 24.792969 26.910156 24.503906 26.910156 L 24.261719 26.910156 L 24.3125 26.753906 C 24.382812 26.503906 24.367188 25.5625 24.296875 25.460938 C 24.242188 25.386719 24.207031 25.441406 24.039062 25.859375 C 23.757812 26.554688 23.574219 26.910156 23.488281 26.910156 C 23.449219 26.910156 23.414062 26.902344 23.414062 26.890625 C 23.414062 26.882812 23.515625 26.628906 23.628906 26.332031 C 23.746094 26.039062 23.976562 25.414062 24.132812 24.9375 L 24.425781 24.078125 L 24.488281 24.269531 C 24.53125 24.375 24.628906 24.792969 24.710938 25.199219 Z M 19.019531 26.539062 L 19 26.910156 L 18.808594 26.910156 C 18.703125 26.910156 18.613281 26.902344 18.613281 26.886719 C 18.613281 26.835938 18.984375 26.167969 19.011719 26.167969 C 19.023438 26.167969 19.03125 26.335938 19.019531 26.539062 Z M 9.246094 28.527344 C 9.261719 29.398438 9.335938 29.308594 8.558594 29.359375 C 8.054688 29.394531 8.035156 29.390625 8.003906 29.289062 C 7.980469 29.1875 7.960938 29.1875 7.5625 29.214844 C 7.339844 29.234375 7.136719 29.277344 7.117188 29.304688 C 7.097656 29.335938 7.078125 29.558594 7.078125 29.796875 C 7.078125 30.21875 7.085938 30.230469 7.191406 30.214844 C 7.257812 30.207031 7.308594 30.160156 7.316406 30.097656 C 7.332031 30.007812 7.386719 29.988281 7.835938 29.9375 C 8.113281 29.902344 8.371094 29.878906 8.40625 29.878906 C 8.449219 29.878906 8.464844 30.085938 8.464844 30.738281 C 8.464844 31.523438 8.457031 31.605469 8.382812 31.628906 C 8.21875 31.675781 7.421875 31.859375 7.371094 31.859375 C 7.347656 31.859375 7.328125 31.8125 7.328125 31.753906 C 7.328125 31.675781 7.300781 31.65625 7.191406 31.671875 L 7.054688 31.683594 L 7.039062 32.214844 C 7.035156 32.511719 7.042969 32.75 7.070312 32.75 C 7.09375 32.75 7.210938 32.714844 7.328125 32.675781 C 7.441406 32.636719 7.554688 32.601562 7.578125 32.601562 C 7.605469 32.601562 7.625 32.90625 7.625 33.28125 L 7.625 33.960938 L 7.367188 34.054688 C 7.222656 34.105469 6.703125 34.296875 6.21875 34.484375 C 5.726562 34.671875 5.320312 34.828125 5.3125 34.828125 C 5.308594 34.828125 5.296875 34.46875 5.296875 34.039062 L 5.296875 33.25 L 5.429688 33.183594 L 5.5625 33.121094 L 5.570312 31.265625 L 5.570312 29.410156 L 5.410156 29.394531 L 5.246094 29.378906 L 5.246094 28.597656 C 5.246094 28.167969 5.261719 27.800781 5.28125 27.785156 C 5.300781 27.765625 6.199219 27.757812 7.273438 27.761719 L 9.234375 27.777344 Z M 11.671875 28.355469 L 11.6875 28.933594 L 11.3125 28.964844 L 11.296875 30.382812 L 11.289062 31.808594 L 11.585938 31.746094 L 11.585938 32.84375 L 11.402344 32.890625 C 11.296875 32.917969 10.902344 33.019531 10.519531 33.113281 C 10.136719 33.207031 9.761719 33.308594 9.6875 33.335938 C 9.609375 33.367188 9.523438 33.390625 9.5 33.390625 C 9.46875 33.390625 9.457031 33.152344 9.464844 32.792969 L 9.480469 32.195312 L 9.652344 32.136719 L 9.828125 32.082031 L 9.828125 29.0625 L 9.667969 29.046875 L 9.503906 29.035156 L 9.503906 28.425781 C 9.503906 28.09375 9.519531 27.800781 9.539062 27.78125 C 9.558594 27.765625 10.042969 27.757812 10.613281 27.761719 L 11.660156 27.777344 Z M 16.585938 28.394531 C 16.585938 29.09375 16.632812 29.046875 15.867188 29.027344 C 15.410156 29.011719 15.371094 29.003906 15.371094 28.914062 C 15.371094 28.839844 15.332031 28.8125 15.21875 28.800781 C 15.089844 28.785156 15.054688 28.804688 15.03125 28.898438 C 15.015625 28.964844 15 29.523438 15 30.140625 L 15 31.269531 L 15.152344 31.253906 L 15.3125 31.238281 L 15.316406 31.710938 L 15.320312 32.175781 L 14.355469 32.332031 C 13.828125 32.421875 13.351562 32.496094 13.308594 32.496094 C 13.226562 32.5 13.21875 32.445312 13.21875 32.007812 L 13.21875 31.515625 L 13.375 31.472656 L 13.535156 31.433594 L 13.535156 30.152344 L 13.539062 28.863281 L 13.375 28.851562 C 13.234375 28.835938 13.21875 28.84375 13.21875 28.980469 C 13.21875 29.113281 13.203125 29.128906 12.988281 29.15625 C 12.863281 29.171875 12.59375 29.1875 12.394531 29.1875 L 12.03125 29.1875 L 12.03125 27.800781 L 16.585938 27.800781 Z M 19.136719 28.742188 C 19.511719 29.261719 19.820312 29.675781 19.828125 29.671875 C 19.832031 29.660156 19.828125 29.4375 19.8125 29.171875 C 19.792969 28.707031 19.789062 28.691406 19.671875 28.691406 C 19.554688 28.691406 19.554688 28.683594 19.554688 28.246094 L 19.554688 27.800781 L 21.4375 27.800781 L 21.4375 28.6875 L 21.164062 28.71875 L 21.164062 30.992188 L 21.4375 31.023438 L 21.4375 31.914062 L 20.679688 31.886719 C 20.257812 31.867188 19.894531 31.859375 19.871094 31.859375 C 19.839844 31.859375 19.535156 31.46875 19.183594 30.992188 C 18.828125 30.515625 18.519531 30.125 18.5 30.125 C 18.480469 30.125 18.46875 30.320312 18.476562 30.558594 C 18.488281 30.992188 18.488281 30.992188 18.628906 31.007812 L 18.761719 31.023438 L 18.761719 31.886719 L 17.90625 31.945312 C 17.4375 31.976562 17.015625 32.015625 16.964844 32.03125 C 16.890625 32.066406 16.882812 32.019531 16.882812 31.597656 L 16.882812 31.121094 L 17.019531 31.105469 L 17.152344 31.089844 L 17.167969 29.914062 L 17.179688 28.742188 L 16.882812 28.742188 L 16.882812 27.800781 L 18.460938 27.800781 Z M 25.816406 28.394531 C 25.816406 28.90625 25.808594 28.964844 25.734375 28.960938 C 25.683594 28.960938 25.425781 28.953125 25.152344 28.949219 C 24.707031 28.9375 24.664062 28.929688 24.636719 28.839844 C 24.613281 28.75 24.570312 28.742188 24.136719 28.742188 L 23.664062 28.742188 L 23.664062 29.113281 C 23.664062 29.472656 23.667969 29.484375 23.789062 29.484375 C 23.867188 29.484375 23.910156 29.453125 23.910156 29.410156 C 23.910156 29.351562 24.011719 29.335938 24.5 29.335938 C 24.875 29.335938 25.105469 29.355469 25.128906 29.390625 C 25.144531 29.417969 25.144531 29.722656 25.125 30.0625 L 25.089844 30.679688 L 24.660156 30.644531 C 24.089844 30.605469 23.960938 30.578125 23.960938 30.492188 C 23.960938 30.398438 23.734375 30.402344 23.691406 30.503906 C 23.636719 30.652344 23.660156 31.117188 23.726562 31.140625 C 23.757812 31.152344 23.996094 31.171875 24.246094 31.191406 C 24.648438 31.214844 24.703125 31.210938 24.703125 31.140625 C 24.703125 31.066406 24.753906 31.0625 25.089844 31.089844 C 25.296875 31.105469 25.550781 31.132812 25.648438 31.144531 L 25.828125 31.171875 L 25.855469 31.722656 C 25.871094 32.03125 25.867188 32.292969 25.851562 32.308594 C 25.832031 32.328125 25.628906 32.3125 25.394531 32.273438 C 24.800781 32.179688 23.152344 32.011719 22.464844 31.972656 L 21.882812 31.941406 L 21.882812 31.015625 L 22.226562 31.015625 L 22.226562 28.691406 L 21.882812 28.691406 L 21.882812 27.800781 L 23.851562 27.8125 L 25.816406 27.828125 Z M 29.914062 28.242188 L 30.347656 28.675781 L 30.347656 29.746094 L 30.089844 29.714844 C 29.945312 29.703125 29.628906 29.671875 29.390625 29.652344 C 28.984375 29.621094 28.949219 29.605469 28.90625 29.5 C 28.882812 29.433594 28.863281 29.316406 28.863281 29.242188 C 28.863281 29.019531 28.726562 28.945312 28.289062 28.917969 C 27.792969 28.894531 27.722656 28.945312 27.722656 29.308594 C 27.722656 29.691406 27.789062 29.730469 28.5 29.785156 C 29.550781 29.863281 29.445312 29.824219 29.921875 30.355469 L 30.347656 30.820312 L 30.347656 31.648438 L 30.339844 32.476562 L 29.9375 32.78125 L 29.53125 33.085938 L 28.351562 32.824219 L 27.167969 32.566406 L 26.726562 32.125 L 26.289062 31.683594 L 26.289062 30.863281 L 26.625 30.894531 C 26.808594 30.914062 27.125 30.941406 27.328125 30.957031 L 27.699219 30.992188 L 27.710938 31.21875 C 27.734375 31.554688 27.867188 31.65625 28.363281 31.71875 C 28.851562 31.785156 28.910156 31.75 28.910156 31.414062 C 28.910156 31.121094 28.875 31.03125 28.753906 30.960938 C 28.703125 30.933594 28.3125 30.867188 27.886719 30.8125 L 27.109375 30.71875 L 26.710938 30.339844 C 26.488281 30.125 26.296875 29.929688 26.277344 29.902344 C 26.257812 29.875 26.238281 29.5625 26.238281 29.210938 L 26.234375 28.570312 L 27.054688 27.804688 L 28.273438 27.800781 L 29.484375 27.800781 Z M 34.367188 28.371094 L 34.800781 28.914062 L 34.800781 29.59375 C 34.800781 30.105469 34.789062 30.273438 34.742188 30.273438 C 34.707031 30.273438 34.390625 30.230469 34.039062 30.175781 C 33.6875 30.121094 33.394531 30.078125 33.386719 30.078125 C 33.375 30.078125 33.367188 29.9375 33.367188 29.765625 C 33.367188 29.492188 33.351562 29.433594 33.238281 29.332031 C 33.132812 29.230469 33.050781 29.210938 32.726562 29.195312 C 32.234375 29.171875 32.207031 29.195312 32.222656 29.753906 C 32.238281 30.160156 32.265625 30.179688 33.152344 30.300781 L 33.9375 30.402344 L 34.367188 31.015625 L 34.800781 31.636719 L 34.8125 32.601562 C 34.816406 33.128906 34.820312 33.652344 34.820312 33.761719 C 34.820312 33.941406 34.777344 34.015625 34.445312 34.410156 C 34.238281 34.652344 34.039062 34.878906 34 34.910156 C 33.945312 34.960938 33.6875 34.855469 32.796875 34.425781 L 31.660156 33.882812 L 31.203125 33.195312 L 30.742188 32.5 L 30.742188 31.980469 C 30.742188 31.695312 30.753906 31.460938 30.761719 31.460938 C 30.78125 31.460938 31.976562 31.699219 32.117188 31.734375 C 32.21875 31.757812 32.226562 31.789062 32.226562 32.105469 C 32.226562 32.582031 32.335938 32.753906 32.777344 32.976562 C 32.964844 33.066406 33.144531 33.144531 33.171875 33.144531 C 33.308594 33.144531 33.363281 32.964844 33.367188 32.53125 C 33.367188 32.046875 33.261719 31.785156 33.054688 31.734375 C 32.996094 31.71875 32.644531 31.640625 32.277344 31.554688 C 31.910156 31.472656 31.59375 31.394531 31.578125 31.375 C 31.5625 31.355469 31.371094 31.125 31.148438 30.863281 L 30.742188 30.382812 L 30.742188 28.644531 L 31.148438 28.222656 L 31.550781 27.800781 L 32.742188 27.8125 L 33.9375 27.828125 Z M 34.367188 28.371094 "/>
<path style=" stroke:none;fill-rule:nonzero;fill:rgb(0%,0%,0%);fill-opacity:1;" d="M 19.109375 3.214844 C 19.078125 3.269531 19.070312 3.3125 19.078125 3.3125 C 19.09375 3.3125 19.128906 3.269531 19.160156 3.214844 C 19.1875 3.160156 19.199219 3.117188 19.1875 3.117188 C 19.171875 3.117188 19.136719 3.160156 19.109375 3.214844 Z M 19.109375 3.214844 "/>
<path style=" stroke:none;fill-rule:nonzero;fill:rgb(0%,0%,0%);fill-opacity:1;" d="M 19.257812 3.511719 C 19.144531 3.625 19.085938 3.640625 19.136719 3.546875 C 19.160156 3.515625 19.152344 3.503906 19.132812 3.527344 C 19.109375 3.546875 19.089844 3.605469 19.085938 3.65625 C 19.078125 3.746094 19.085938 3.746094 19.1875 3.671875 C 19.246094 3.621094 19.289062 3.578125 19.277344 3.566406 C 19.265625 3.558594 19.296875 3.515625 19.347656 3.484375 C 19.390625 3.449219 19.414062 3.414062 19.394531 3.414062 C 19.371094 3.414062 19.3125 3.457031 19.257812 3.511719 Z M 19.257812 3.511719 "/>
<path style=" stroke:none;fill-rule:nonzero;fill:rgb(0%,0%,0%);fill-opacity:1;" d="M 29.613281 7.972656 C 29.628906 8.007812 29.6875 8.1875 29.746094 8.371094 C 29.871094 8.742188 30.03125 8.929688 30.253906 8.972656 C 30.460938 9.011719 30.503906 9.007812 30.59375 8.953125 C 30.652344 8.914062 30.574219 8.808594 30.171875 8.410156 C 29.710938 7.945312 29.5625 7.832031 29.613281 7.972656 Z M 29.613281 7.972656 "/>
<path style=" stroke:none;fill-rule:nonzero;fill:rgb(0%,0%,0%);fill-opacity:1;" d="M 20.707031 4.773438 C 20.539062 5.238281 20.53125 5.203125 20.910156 5.273438 C 21.097656 5.308594 21.105469 5.304688 21.070312 5.1875 C 21.050781 5.125 21.011719 4.925781 20.984375 4.75 C 20.957031 4.570312 20.914062 4.414062 20.894531 4.394531 C 20.875 4.375 20.792969 4.542969 20.707031 4.773438 Z M 20.707031 4.773438 "/>
<path style=" stroke:none;fill-rule:nonzero;fill:rgb(0%,0%,0%);fill-opacity:1;" d="M 18.367188 4.679688 C 18.367188 4.847656 18.332031 5.082031 18.292969 5.195312 C 18.253906 5.3125 18.226562 5.417969 18.238281 5.433594 C 18.261719 5.457031 18.910156 5.25 18.910156 5.214844 C 18.910156 5.199219 18.789062 5.011719 18.636719 4.785156 L 18.367188 4.378906 Z M 18.367188 4.679688 "/>
<path style=" stroke:none;fill-rule:nonzero;fill:rgb(0%,0%,0%);fill-opacity:1;" d="M 18.40625 5.589844 C 18.320312 5.644531 18.070312 6.046875 18.070312 6.128906 C 18.070312 6.160156 18.097656 6.183594 18.136719 6.183594 C 18.179688 6.183594 18.222656 6.21875 18.238281 6.261719 C 18.257812 6.316406 18.320312 6.332031 18.5 6.320312 C 18.753906 6.308594 18.835938 6.214844 18.636719 6.164062 C 18.570312 6.144531 18.515625 6.109375 18.515625 6.085938 C 18.515625 6.015625 18.578125 6.019531 18.652344 6.09375 C 18.683594 6.125 18.832031 6.148438 18.984375 6.144531 L 19.257812 6.140625 L 19.257812 6.375 C 19.257812 6.539062 19.289062 6.652344 19.351562 6.734375 L 19.445312 6.851562 L 19.480469 6.726562 C 19.496094 6.660156 19.523438 6.441406 19.550781 6.238281 C 19.578125 5.941406 19.570312 5.847656 19.503906 5.71875 L 19.421875 5.566406 L 18.957031 5.554688 C 18.699219 5.546875 18.457031 5.566406 18.40625 5.589844 Z M 18.40625 5.589844 "/>
<path style=" stroke:none;fill-rule:nonzero;fill:rgb(0%,0%,0%);fill-opacity:1;" d="M 20.03125 5.648438 C 19.941406 5.777344 19.929688 5.984375 20 6.394531 C 20.042969 6.679688 20.253906 7.011719 20.441406 7.09375 C 20.515625 7.128906 20.496094 6.886719 20.390625 6.417969 C 20.363281 6.289062 20.339844 6.171875 20.351562 6.164062 C 20.363281 6.152344 20.496094 6.132812 20.644531 6.121094 C 20.886719 6.09375 20.894531 6.097656 20.757812 6.144531 C 20.542969 6.214844 20.550781 6.269531 20.765625 6.3125 C 20.890625 6.332031 20.96875 6.320312 21.03125 6.273438 C 21.074219 6.226562 21.171875 6.183594 21.246094 6.164062 L 21.382812 6.132812 L 21.308594 5.925781 C 21.179688 5.566406 21.136719 5.539062 20.589844 5.539062 C 20.144531 5.539062 20.097656 5.550781 20.03125 5.648438 Z M 20.03125 5.648438 "/>
<path style=" stroke:none;fill-rule:nonzero;fill:rgb(0%,0%,0%);fill-opacity:1;" d="M 19.386719 7.035156 C 19.257812 7.105469 19.136719 7.371094 19.203125 7.433594 C 19.246094 7.480469 19.289062 7.476562 19.355469 7.429688 C 19.5 7.339844 19.539062 7.355469 19.613281 7.503906 C 19.660156 7.601562 19.71875 7.644531 19.800781 7.644531 C 19.90625 7.644531 19.925781 7.625 19.914062 7.503906 C 19.90625 7.375 19.921875 7.371094 20.117188 7.371094 C 20.234375 7.371094 20.347656 7.355469 20.367188 7.335938 C 20.382812 7.316406 20.328125 7.230469 20.242188 7.144531 C 20.097656 6.996094 20.074219 6.984375 19.980469 7.050781 C 19.855469 7.144531 19.761719 7.144531 19.597656 7.054688 C 19.515625 7.011719 19.441406 7.003906 19.386719 7.035156 Z M 19.386719 7.035156 "/>
<path style=" stroke:none;fill-rule:nonzero;fill:rgb(0%,0%,0%);fill-opacity:1;" d="M 19.199219 7.742188 C 18.984375 7.886719 18.835938 8.101562 18.988281 8.039062 C 19.238281 7.945312 19.382812 7.929688 19.914062 7.960938 C 20.234375 7.972656 20.496094 7.972656 20.496094 7.960938 C 20.496094 7.941406 20.414062 7.855469 20.316406 7.765625 C 20.191406 7.664062 20.113281 7.625 20.054688 7.648438 C 19.910156 7.710938 19.617188 7.726562 19.585938 7.671875 C 19.53125 7.582031 19.390625 7.609375 19.199219 7.742188 Z M 19.199219 7.742188 "/>
<path style=" stroke:none;fill-rule:nonzero;fill:rgb(0%,0%,0%);fill-opacity:1;" d="M 19.382812 13.984375 C 19.394531 14.144531 19.421875 14.355469 19.429688 14.453125 C 19.460938 14.664062 19.402344 14.742188 19.097656 14.894531 C 18.855469 15.019531 18.605469 15.003906 18.222656 14.84375 L 17.960938 14.738281 L 17.988281 14.925781 C 18.035156 15.152344 18.148438 15.324219 18.371094 15.472656 C 18.515625 15.574219 18.585938 15.585938 18.8125 15.566406 C 18.960938 15.554688 19.128906 15.527344 19.1875 15.507812 C 19.316406 15.46875 19.40625 15.648438 19.40625 15.957031 C 19.40625 16.226562 19.292969 16.457031 18.984375 16.816406 C 18.863281 16.957031 18.765625 17.105469 18.777344 17.136719 C 18.789062 17.164062 18.902344 17.199219 19.035156 17.214844 C 19.253906 17.234375 19.28125 17.253906 19.316406 17.386719 C 19.339844 17.46875 19.382812 17.886719 19.402344 18.320312 C 19.429688 18.984375 19.449219 19.113281 19.539062 19.234375 C 19.679688 19.421875 19.8125 19.425781 19.964844 19.242188 C 20.113281 19.070312 20.179688 18.8125 20.125 18.613281 L 20.089844 18.476562 L 20.003906 18.59375 C 19.839844 18.84375 19.765625 18.910156 19.707031 18.878906 C 19.667969 18.847656 19.683594 18.789062 19.761719 18.660156 C 19.871094 18.488281 19.875 18.414062 19.894531 17.488281 C 19.90625 16.941406 19.914062 16.273438 19.910156 16 C 19.910156 15.503906 19.910156 15.5 20.023438 15.523438 C 20.257812 15.566406 20.816406 15.175781 21.042969 14.8125 C 21.199219 14.558594 21.113281 14.523438 20.773438 14.691406 C 20.613281 14.777344 20.40625 14.839844 20.316406 14.839844 C 20.164062 14.839844 20.144531 14.816406 19.957031 14.453125 C 19.746094 14.0625 19.484375 13.703125 19.402344 13.703125 C 19.375 13.703125 19.367188 13.828125 19.382812 13.984375 Z M 19.382812 13.984375 "/>
</g>
</svg>
